<?xml version="1.0" standalone="no"?>
<!DOCTYPE svg PUBLIC "-//W3C//DTD SVG 20010904//EN"
 "http://www.w3.org/TR/2001/REC-SVG-20010904/DTD/svg10.dtd">
<svg version="1.0" xmlns="http://www.w3.org/2000/svg"
 width="1200.000000pt" height="1200.000000pt" viewBox="0 0 1200.000000 1200.000000"
 preserveAspectRatio="xMidYMid meet">
<metadata>
Created by potrace 1.11, written by Peter Selinger 2001-2013
</metadata>
<g transform="translate(0.000000,1200.000000) scale(0.100000,-0.100000)"
fill="#000000" stroke="none">
<path d="M0 6000 l0 -6000 6000 0 6000 0 0 6000 0 6000 -6000 0 -6000 0 0
-6000z m7049 4790 c1840 -346 3366 -635 3390 -641 123 -29 227 -116 284 -236
58 -125 85 44 -452 -2798 -265 -1402 -486 -2566 -492 -2585 -6 -19 -18 -45
-26 -58 -20 -33 -39 -14 -52 51 -12 58 -106 1071 -121 1302 -11 165 1 459 25
631 8 56 132 724 275 1485 235 1243 261 1392 258 1464 -9 178 -127 324 -300
369 -135 36 -5693 1076 -5747 1076 -152 0 -304 -97 -366 -233 -16 -35 -48
-179 -96 -432 -39 -209 -82 -409 -95 -444 -67 -179 -208 -312 -332 -313 -82 0
-133 37 -174 127 -43 97 -37 153 105 900 142 742 145 754 235 844 79 79 170
118 281 120 32 1 1357 -244 3400 -629z m1562 -1407 c122 -60 209 -180 230
-315 5 -35 161 -1728 346 -3763 368 -4062 346 -3762 288 -3881 -49 -100 -151
-183 -260 -213 -68 -18 -6874 -633 -6933 -627 -158 18 -304 140 -347 290 -16
57 -686 7404 -686 7526 -1 172 113 333 273 386 72 24 6753 634 6913 631 102
-2 115 -4 176 -34z"/>
<path d="M5050 8640 c-1554 -142 -2852 -262 -2885 -267 -169 -29 -305 -164
-335 -333 -11 -59 9 -297 219 -2605 127 -1397 235 -2571 241 -2608 27 -175
159 -313 330 -346 47 -9 473 28 2925 249 1579 143 2896 264 2928 270 130 21
242 103 298 215 61 125 75 -77 -185 2770 -140 1537 -241 2599 -250 2628 -51
170 -218 289 -401 286 -33 -1 -1331 -117 -2885 -259z m942 -740 c329 -101 458
-500 253 -779 -181 -246 -537 -274 -761 -59 -270 259 -164 713 196 835 87 30
221 31 312 3z m-2201 -820 c142 -26 285 -136 352 -268 175 -350 -95 -754 -488
-729 -299 19 -521 302 -462 588 23 112 61 183 142 265 126 127 282 176 456
144z m3539 -1105 c125 -64 214 -202 276 -428 66 -237 30 -594 -90 -889 -177
-436 -566 -822 -1091 -1083 -149 -74 -437 -187 -605 -238 -440 -134 -899 -154
-1273 -57 -295 75 -543 217 -762 435 -157 156 -245 306 -296 502 -60 235 28
396 255 469 78 26 90 26 366 29 185 2 329 8 410 18 855 109 1579 443 2231
1032 210 189 308 238 459 232 57 -2 97 -9 120 -22z"/>
</g>
</svg>
